#N canvas 352 426 450 300 12;
#X obj 456 117 mrpeach/udpsend;
#X obj 396 91 mrpeach/packOSC;
#X msg 535 91 disconnect;
#X obj 211 61 oscparse;
#X obj 211 85 list trim;
#X obj 211 37 udpreceive 44444;
#X obj 211 109 route rotation;
#X obj 211 133 unpack f f f;
#X obj 207 161 expr if($f1 > 4000 \, 0 \, $f1);
#X msg 443 67 connect localhost 4444;
#X obj 198 243 print angle;
#X obj 199 194 / 4000;
#X msg 344 214 send /roue \$1;
#X connect 1 0 0 0;
#X connect 2 0 0 0;
#X connect 3 0 4 0;
#X connect 4 0 6 0;
#X connect 5 0 3 0;
#X connect 6 0 7 0;
#X connect 7 0 8 0;
#X connect 8 0 11 0;
#X connect 9 0 0 0;
#X connect 11 0 12 0;
#X connect 12 0 10 0;
#X connect 12 0 1 0;
